<?xml version="1.0" encoding="UTF-8"?>
<svg width="120px" height="46px" viewBox="0 0 120 46" version="1.1" xmlns="http://www.w3.org/2000/svg" xmlns:xlink="http://www.w3.org/1999/xlink">
    <!-- Generator: Sketch 59.1 (86144) - https://sketch.com -->
    <title>rating_grp copy</title>
    <desc>Created with Sketch.</desc>
    <g id="rating_grp-copy" stroke="none" stroke-width="1" fill="none" fill-rule="evenodd">
        <g id="rating_grp" transform="translate(0.000000, 23.000000)" fill="#FF6600">
            <polygon id="Star" points="12 17.25 4.94657697 20.8036954 6.2936609 13.2768477 0.587321804 7.94630456 8.47328849 6.84815228 12 0 15.5267115 6.84815228 23.4126782 7.94630456 17.7063391 13.2768477 19.053423 20.8036954"></polygon>
            <polygon id="Star-Copy-2" points="36 17.25 28.946577 20.8036954 30.2936609 13.2768477 24.5873218 7.94630456 32.4732885 6.84815228 36 0 39.5267115 6.84815228 47.4126782 7.94630456 41.7063391 13.2768477 43.053423 20.8036954"></polygon>
            <polygon id="Star-Copy-3" points="60 17.25 52.946577 20.8036954 54.2936609 13.2768477 48.5873218 7.94630456 56.4732885 6.84815228 60 0 63.5267115 6.84815228 71.4126782 7.94630456 65.7063391 13.2768477 67.053423 20.8036954"></polygon>
            <polygon id="Star-Copy" points="84 17.25 76.946577 20.8036954 78.2936609 13.2768477 72.5873218 7.94630456 80.4732885 6.84815228 84 0 87.5267115 6.84815228 95.4126782 7.94630456 89.7063391 13.2768477 91.053423 20.8036954"></polygon>
            <polygon id="Star-Copy-4" points="108 17.25 100.946577 20.8036954 102.293661 13.2768477 96.5873218 7.94630456 104.473288 6.84815228 108 0 111.526712 6.84815228 119.412678 7.94630456 113.706339 13.2768477 115.053423 20.8036954"></polygon>
        </g>
        <g fill="#D8D8D8">
            <polygon id="Star" points="12 17.25 4.94657697 20.8036954 6.2936609 13.2768477 0.587321804 7.94630456 8.47328849 6.84815228 12 0 15.5267115 6.84815228 23.4126782 7.94630456 17.7063391 13.2768477 19.053423 20.8036954"></polygon>
            <polygon id="Star-Copy-2" points="36 17.25 28.946577 20.8036954 30.2936609 13.2768477 24.5873218 7.94630456 32.4732885 6.84815228 36 0 39.5267115 6.84815228 47.4126782 7.94630456 41.7063391 13.2768477 43.053423 20.8036954"></polygon>
            <polygon id="Star-Copy-3" points="60 17.25 52.946577 20.8036954 54.2936609 13.2768477 48.5873218 7.94630456 56.4732885 6.84815228 60 0 63.5267115 6.84815228 71.4126782 7.94630456 65.7063391 13.2768477 67.053423 20.8036954"></polygon>
            <polygon id="Star-Copy" points="84 17.25 76.946577 20.8036954 78.2936609 13.2768477 72.5873218 7.94630456 80.4732885 6.84815228 84 0 87.5267115 6.84815228 95.4126782 7.94630456 89.7063391 13.2768477 91.053423 20.8036954"></polygon>
            <polygon id="Star-Copy-4" points="108 17.25 100.946577 20.8036954 102.293661 13.2768477 96.5873218 7.94630456 104.473288 6.84815228 108 0 111.526712 6.84815228 119.412678 7.94630456 113.706339 13.2768477 115.053423 20.8036954"></polygon>
        </g>
    </g>
</svg>